<?xml version="1.0" encoding="UTF-8"?>
<svg id="Capa_1" data-name="Capa 1" xmlns="http://www.w3.org/2000/svg" viewBox="0 0 1000 1000">
  <defs>
    <style>
      .cls-1 {
        fill: #e4e4e7;
      }

      .cls-2 {
        fill: #193c8e;
      }

      .cls-3 {
        fill: #f4f5f8;
      }

      .cls-4 {
        fill: #274eaa;
      }

      .cls-5 {
        fill: #193c8d;
      }

      .cls-6 {
        fill: #183c8d;
      }

      .cls-7 {
        fill: #e3e4e8;
      }

      .cls-8 {
        fill: #335bbc;
      }

      .cls-9 {
        fill: #1a3d8f;
      }

      .cls-10 {
        fill: #e2e9fd;
      }

      .cls-11 {
        fill: #2a51ad;
      }

      .cls-12 {
        fill: #4f77d8;
      }

      .cls-13 {
        fill: #335cbd;
      }

      .cls-14 {
        fill: #02144f;
      }

      .cls-15 {
        fill: #274ea7;
      }

      .cls-16 {
        fill: #fefefc;
      }

      .cls-17 {
        fill: #4f77d9;
      }

      .cls-18 {
        fill: #001647;
      }

      .cls-19 {
        fill: #212121;
      }

      .cls-20 {
        fill: #001646;
      }

      .cls-21 {
        fill: #f6f8fa;
      }

      .cls-22 {
        fill: #4c74da;
      }

      .cls-23 {
        fill: #274da9;
      }

      .cls-24 {
        fill: #011543;
      }

      .cls-25 {
        fill: #4f78d8;
      }

      .cls-26 {
        fill: #e4ebfd;
      }

      .cls-27 {
        fill: #325bbc;
      }

      .cls-28 {
        fill: #2950aa;
      }

      .cls-29 {
        fill: #e5ecfd;
      }

      .cls-30 {
        fill: #001446;
      }
    </style>
  </defs>
  <path class="cls-30" d="M262.91,877.81c-1.34-36.51,37.61-32.25,29.54-46.97-15.33-37.6-23.08-76.93-25.03-117.42-.18-3.79-.79-6.23-4.82-7.3-11.33-4.99,4.74-65.77,5.4-79.47-72.57,27.39-112.94-58.11-109.31-117.85,.14-4.4-.96-6.49-5.18-8.17-20.9-8.93-42.22-24-49.62-46.4-6.17-20.77,15.78-20.32,11.38-27.29-11.84-17.13-.45-46,22.8-39.24,4.3,1.14,5.46,.74,6.1-3.98,2.04-14.95,18.5-23.72,32.98-17.95,29.73,11.25,25.8,44.58,40.75,24.51,40.06-23.94,35.67,37.28,23.49,58.74-8.32,11.24-5.05,20.7,3.13,30.69,21.26-24.02,45.61-44.07,75.46-58.76-56.29-21.17-101.25-60.18-126.42-114.67-8.78-18.09-8.28-18,8.03-30.06,13.92-10.02,48.51-47.19,46.95-64.07-25.56-41.45-51.37-198.43,29.13-188.22,41.17,8.43,75.65,35.36,102.14,66.93,1.99,2.52,3.65,2.84,6.82,1.82,49.43-15.87,99.13-16.29,149-2.1,11.52,3.56,18.42,10.49,28.36-.88,32.12-29.19,71.45-54.45,115.43-59.3,47.64-2.73,47.46,58.16,43.8,92.06-4.62,39.94-18.32,76.8-38.93,111.16-1.57,2.63-1.26,4.25,.23,6.65,11.65,18.81,25.77,35.33,43.99,48.12,10.84,7.61,11.21,9.78,4.81,21.48-28.14,52.94-71.08,88.66-125.38,112.84,48.48,31.76,78.42,82.63,98.5,135.72,6.42,13.67-14.43,10.27-8.77,23.36,9.12,30.44,13.01,61.45,13.77,93.21,36.3-30.57,32.55-81.63,16.77-121.47-6.57-18.44-11.78-37.09-9.08-56.88,7.77-56.91,64.28-73,105.77-44.1,65.82,50.62,71.73,149.93,43.37,222.77-33.29,85.7-124.54,135.92-214.68,130.29-42.15-6.16-22.16-13.17-41.19,33.52-3.12,6.52,22.13,13.91,27.24,30.09,14.39,59.25-95.34,42.11-129.44,39.75-48.08-7.06-48.12-81.35-60.77-118.79-.23-6.51-5.48-5.34-5.38,.52-10.83,39.03-7.98,113.56-60.47,116.57-31.91-.11-114.55,13.25-120.66-29.5Z"/>
  <path class="cls-16" d="M598.53,546.15c-2.83-8.45-3.77-43.93-13.14-44.08-3.4,.76-3.74,4.18-3.63,7.18,5.18,62.88,20.16,124.79,21.16,188.11,.08,4.41-.58,6.16-5.59,7.27-62.58,13.9-125.98,16.61-189.72,14-16.8-.54-139.54-11.04-136.47-27.15,4.49-65.32,22.91-128.25,39.49-191.18,.22-3.34,2.74-8.57-1.67-10.04-5.87-.49-6.93,10.68-9.84,14.62-9.72,6.9-13.11,19.11-20.92,27.81-10.13,12.87-18.64-31.19-25.52-36.91-2.77-17.96,59.76-59.89,77.62-65.54,28.49-11.92,33.03,34.66,90.1,43.53,47.32,10.76,100.66,.73,136.97-32.63,9.56-9.01,21.91-9.05,33.2-12.56,27.85,11.44,48.95,36.5,66.5,60.61,6.62,9.45,43.11,69.1,34.09,74.75-20.9,10.44-42.14,19.93-65.13,24.9-10.61,5.84-17.32-28.94-21.72-36.29-1-2.93-1.82-6.13-5.81-6.4Z"/>
  <path class="cls-17" d="M395.49,427.29c-79.05-9.49-156.6-52.85-190.1-127.65-2.7-5.74-2.14-9.39,3.61-13.38,22.88-15.9,37.3-38.97,50.78-62.57,33.57-64.22,91.37-116.37,164.85-127.41,72.17-13.1,150.41,9.26,197.56,67.08,36.37,41.05,47.16,100.59,94.49,132.02,25.57,7.4-73.27,82.53-65.65,55.56,18.12-35.4-14.52-87.09-54.61-79.74-14.15,5.76,1.83,17.84,5.49,25.72,22.58,36.39,5.18,81.42-30.33,102.52,5.41,1.37,11.91-3.85,14.47,1.18-49.09,28.93-134.12,32.99-190.57,26.68Z"/>
  <path class="cls-27" d="M411.9,865.61c-4.33,36.42-49.63,28.74-76.97,30.17-11.96-.49-3.99-18.42-1.12-24.76,.79-1.49,2.66-3.39,.62-4.99-1.63-1.28-3.63-.21-5.25,.76-16.8,7.81-5.02,31.13-18.63,26.71-14.17-3.12-17.29-9.78-10.29-22.7,5.11-4.81-.31-8.75-4.63-4.2-11.44,5.58-1.12,28.15-13.6,19.54-6.59-4.09-8.92-12.06-5.54-19.17,7.97-21.01,41.55-13.05,26.96-39.3-14.12-35.12-21.94-72.11-24.43-109.86-.52-4.73,1.33-5.8,5.78-4.72,17.19,4.16,34.53,7.65,52.01,10.27,71.68,10.6,144.81,11.48,216.55,.96,8.32,.93,54.07-13.43,52.61-5.07,2.26,8.91,6.09,16.77,14.98,21.21,3.1,1.55,2.48,5.17,2.15,7.95-3.72,31.28-13.16,61.49-24.09,90.93-6.9,14.35,17.38,16.82,23.64,27.3,15.23,15.95-10.01,35.3-9.78,23.02,.32-8.66-2.95-15.92-11.62-19.61-14.85-4.63,8.55,14.32-.75,23.85-4.62,5.56-13.02,4.17-20.04,4-3.15-.07-2.18-3.07-2.42-4.91,.43-18.61-28.22-30.99-18.59-18.27,4.35,4.9,11.51,21.03,2.91,23.49-17.31,.31-34.56-.06-51.64-3.39-37.84-6.54-34.6-94.22-21.63-120.91,2.72-3.71,7.28-11.01-1.27-8.32-30.89,10.16-62.98,2.5-92.49-1.41,21.16,28.2,20.24,67.15,16.56,101.41Z"/>
  <path class="cls-13" d="M231.34,617.68c-53.43-11.12-63.46-77.95-60.33-122.85-22.2-6.84-45.02-19.86-55.12-42.26-5.1-15.11,12.16-11.87,20.33-7.13,6.11,3.33,10.08-3.49,4.98-7.67-4.74-4.65-10.28-8.44-14.06-14.11-6.41-7.73-7.91-26.52,6.49-24.39,12.75-.49,27.13,25.74,36.2,18.99,4.79-6.78-6.1-11.35-9.13-16.4-9.86-8.38-5.65-29.56,9.66-25.65,16.46,5.42,26.97,22.91,32.56,38.7,.72,5.91,8.9,6.64,10.58,.87,4.1-7.38,9.52-20.64,19.61-19.27,4.12,1.5,5.67,5.28,5.83,9.54,4.73,25.71-23.63,47.74-9.85,71.49,22.29,39.48,57.11,87.03,25.14,131.22-5.86,8.52-13.18,11.3-22.91,8.93Z"/>
  <path class="cls-8" d="M699.71,676c-1.86,18.07-.17,57.11-23.81,62.44-1.54-1.23,.13-2.63,.44-3.94,2.92-4.19-.77-32.96-6.19-18.63-2.82,12.76-18.68,39.85-32.34,23.28-3.37-8.17,15.06-13.12,9.75-28.65-.61-6.01-7.21-6.32-7.66-.18-.67,10.99-17.87,25.6-21.53,8.65-5.74-34.44-4.9-69.68-10.76-104.19-1.04-8.88-1.44-9.14,6.9-10.72,22.22-4.23,43.39-11.6,63.96-20.84,6.85-3.08,6.9-2.91,8.81,3.99,7.89,28.42,11.87,57.38,12.41,88.79Z"/>
  <path class="cls-6" d="M746.09,647.59c6.53-17.96,7.76-36.43,5.27-55.25,30.78-21.14,75.27-11.96,103.04,10.81,34.2,18.79-9.87,99.34-30.63,118.38-2.15-2.1-1.26-4.62-1.01-7.07,6.82-43.43-34.73-82.4-76.67-66.85Z"/>
  <path class="cls-22" d="M868.53,621.11c-25.75-36.15-77.67-48.86-117.17-28.77-1.75-15.9-6.95-30.93-11.68-46.08-1.39-3.85,1.02-6.24,3.32-8.71,12.81-13.79,29.13-20.73,47.36-22.77,27.56-3.12,59.71,6.58,74.83,31.28,6.89,24.22,6.54,50.22,3.35,75.07Z"/>
  <path class="cls-12" d="M674.91,223.07c-2.8-8.66-16.23-22.59-12.56-30.3,14.21-24.04,22.6-50.1,26.43-77.62,1.69-15.47,5.03-58.15-21.43-45.72-25.46,11.13-47.34,27.15-64.55,49.1-2.32,2.96-3.8,3.71-6.89,1.49-3.1-4.62-32.68-15.65-25.13-19.31,32.94-30.22,138.41-103.3,140.05-14.31,2.25,48.16-10.73,96.05-35.91,136.68Z"/>
  <path class="cls-2" d="M865.18,546.04c-28.95-37.24-100.89-42.88-125.5,.21-43.56-119.61,103.16-130.17,125.5-.21Z"/>
  <path class="cls-25" d="M257.87,201.39c-21.02-42.04-26.45-88.33-17.5-133.91,9.55-58.76,74.26-18.56,101.06,4.77,3.58,4.47,33.53,26.41,22.59,29.41-9.13,3.65-17.81,8.24-26,13.63-3.82,2.52-4.18-.72-5.33-2.6-13.96-22.76-34.32-41.64-58.64-52.83-22.63-9.58-20.12,35.61-20.75,48.8,.76,24.93,4.26,49.4,14.44,72.5,2.18,7.65-6.52,12.72-9.87,20.23Z"/>
  <path class="cls-22" d="M746.09,647.59c45.56-22.37,88.47,29.97,77.68,73.93-1.51,5.1-50.71,53.03-43.99,31.61,4.42-33.27-12.92-65.85-46.38-74.98-1.99-.56-4.84-.71-3.57-4.19,7.08-7.76,12.91-16.3,16.26-26.36Z"/>
  <path class="cls-5" d="M729.83,673.94c32.84,10.23,58.24,41.66,51.51,80.98-.19,1.09-2.3,3.27,.83,3.89-19.76,13.56-42.78,22.79-66.18,27.71-.86-3.78,1.51-6.74,2.61-10,6.24-18.85,6.01-45.88-12.53-57.55,5.19-31.69,4.84-22.45,23.76-45.03Z"/>
  <path class="cls-11" d="M395.49,427.29c63.7,1.74,132.43,1.96,190.32-27.57,2.8-4.38,7.86-4.24,11.99-5.79,15.55-5.86,29.81-13.69,41.62-25.6,4.46-3.62,6.19-10.55,11.78-12.46,27.87-5.7,47.81-29.99,67.46-48.78-59.61,113.92-206.4,141.92-323.17,120.2Z"/>
  <path class="cls-22" d="M706.07,718.97c1.38-1.87,2.51-2.04,4.25-.1,17.23,18.03,17.42,46.53,5.68,67.65-16.22,5.11-33.18,6.13-49.99,6.28-2.41-.61-3.54-1.94-2.51-4.47,5.89-11.52,6.5-24.94,10.14-36.64,18.98-2.81,27.09-16.4,32.43-32.73Z"/>
  <path class="cls-28" d="M537.06,441.2c-46.63,34.27-130.5,30.4-164.88-5.19,55.68,11.23,110.05,15.99,164.88,5.19Z"/>
  <path class="cls-9" d="M673.63,751.7c.54,12.52-3.2,24.08-7.95,35.4-.86,2.05-2.56,3.95,.32,5.7-11.43,.98-22.14-2.59-32.98-5.29-9.03-2.4,1.23-18.76,.4-25.79,.75-4.49,1.74-7.37,7.43-5.27,14.64,6.68,20.36-7.47,32.78-4.75Z"/>
  <path class="cls-4" d="M411.9,865.61c-3.34-22.45,3.99-46.17-3.58-68.88-.4-8.76-12.5-24.21-10.24-28.96,9.56,5.4,18.97,10.9,30.11,12.95,4.87,.9,2.39,5.94,1.88,8.96-5.4,25.31-8.69,51.89-18.18,75.93Z"/>
  <path class="cls-23" d="M493.07,767.63c-7.99,20.55-13.19,42.03-10.36,64.33,.06,11.71,5.23,23.52,2.86,34.94-11.69-25.17-14.99-53.14-22.1-79.77-1.03-4.24-.16-6.6,4.52-7.42,9.45-1.66,17.42-6.6,25.08-12.09Z"/>
  <path class="cls-15" d="M231.34,617.68c33.07,2.06,35.02-45.2,33.96-68.94,.81,1.38,1.62,2.76,2.46,4.18,2.81-.24,.42-6.41,4.09-4.22,14.4,3.98,9.28,18.01,6.83,28.98-6.45,33.91-8.23,46.88-47.34,40Z"/>
  <path class="cls-1" d="M598.53,546.15c8.76-11.09,15.88,48.85,27.52,42.68-4.6,1.07-20.71,7.92-21.46,.89-1.89-14.54-4.02-29.05-6.06-43.57Z"/>
  <path class="cls-7" d="M272.67,534.99c9.7-2.65,18.74-33.6,26.46-30.12-4.13,12.75-8.3,25.49-12.37,38.26-1.55,6.22-11.81-6.02-14.09-8.14Z"/>
  <path class="cls-9" d="M674.71,792.8c4.89-2.18,10.04-.89,15.07-1.1-4.89,2.24-10.03,.99-15.07,1.1Z"/>
  <path class="cls-19" d="M473.47,560.1c16.25,11.81,21.14,32.61,31.74,48.87,3.35,6.29,2.41,7.03-4.48,7.55-28.05,3.08-26.21-34.39-44.67-46.71-.92,11.99-2.11,23.67-2.59,35.38-.25,6.06-2.48,7.87-8.44,7.51-13.76-.84-13.91-.59-13.06-14.27,1.17-18.72,2.69-37.42,3.79-56.15,1.84-14.24-19.21-18.55-24.3-6.27-3.24,21.92-3.49,44.45-5.41,66.6-.35,5.59-2.78,7.02-8,6.57-14.23-1.21-14.66,2.07-13.36-15.47,1.87-25.15,3.78-50.3,5.42-75.47-.04-9.32,8.03-6.22,14.13-6.09,5.89-.37,8.75,1.98,7.52,8.77,21.01-17.88,51.66,.4,45.96,27.22,10.08-3.62,12.88-14.71,19.2-22.3,5.35-7.82,17.68-11.09,25.95-6.98,2.01,1,2.19,2.76,1.27,4.18-9.15,13.13-14.87,30.33-30.68,37.05Z"/>
  <path class="cls-29" d="M448.28,408.66c-84.79-.02-110.23-73.72-44.96-127.4,102.56-69.7,193.72,126.64,44.96,127.4Z"/>
  <path class="cls-10" d="M651.2,355.87c-18.39,27.38-50.34,44.15-82.85,45.46,39.11-28.12,58.39-70.96,25.71-113.23-10.98-9.48-3.91-20.8,9.55-19.97,41.76,3.24,66.66,50.98,47.59,87.74Z"/>
  <path class="cls-10" d="M323.6,393.62c-33.23-.74-66.58-28.17-72.86-63.19-14.79-61.65,74.39-87.43,59.88-52.74-33.16,34.37-24.26,88.65,12.98,115.94Z"/>
  <path class="cls-20" d="M565.81,277.92c1.48,28.31-33.47,50.4-52.26,23.3-31.47-52.17,43.96-93.38,52.26-23.3Z"/>
  <path class="cls-18" d="M336.3,275.18c-.88-25.29,30.67-58.54,51.03-29.2,26.94,48.77-45.03,96.84-51.03,29.2Z"/>
  <path class="cls-26" d="M530.13,177.85c15.68-.68,43.72,15.34,32.38,33.08-9.66,8.03-27.25-9.55-43.86-3.84-25.8,.13-11.21-31.71,11.47-29.25Z"/>
  <path class="cls-29" d="M377.07,172.78c20.44-3.09,33.35,31.68,6.23,27.73-16.12-6.95-33.97,9.73-39.85,2.04-8.72-17,17.1-30.59,33.62-29.77Z"/>
  <path class="cls-14" d="M188.72,449.06c.61-6.13,2.04-11.9,7.71-15.52,2.02-1.47,4.71-.2,3.07,2.29-7.43,9.21,3.6,22.5-1.69,26.64-6.06,1.06-9.28-8.37-9.09-13.41Z"/>
  <path class="cls-24" d="M437.66,341.11c1.85-8.05-1.56-12.7-8.91-16.08-55.23-41.35,63.98-55.84,41.78-9.33-4.28,10.72-22.02,10.07-21.27,21.09,.38,9.8-2.23,26.12,12.48,24.57,8.83-.6,15.81-4.79,21.16-11.74,3.72-7.53,15.79-2.3,10.52,5.2-10.33,16.49-33.4,22.22-46.85,14.29-2.1-1.71-3.93-1.38-6.27-.35-12.89,5.65-30.49,.69-38.58-10.73-2.5-3.53-4.71-9.59,.36-11.93,3.14-1.49,6.15-.81,7.92,2.64,3.63,7.11,10.11,9.49,17.39,10.51,11.37,2.42,9.68-10.72,10.26-18.14Z"/>
  <path class="cls-3" d="M548.51,265c.63,10.4-15.07,10.82-15.06,.49-.76-11.55,15.06-11.44,15.06-.49Z"/>
  <path class="cls-21" d="M381.02,259.37c.61,11.47-15.87,12.09-14.98,1.05-.71-11.06,15.38-11.11,14.98-1.05Z"/>
</svg>
