<?xml version="1.0" standalone="no"?>
<!DOCTYPE svg PUBLIC "-//W3C//DTD SVG 1.1//EN" "http://www.w3.org/Graphics/SVG/1.1/DTD/svg11.dtd">
<svg xmlns:inkscape="http://www.inkscape.org/namespaces/inkscape" xmlns:sodipodi="http://sodipodi.sourceforge.net/DTD/sodipodi-0.dtd" xmlns="http://www.w3.org/2000/svg" xmlns:svg="http://www.w3.org/2000/svg" id="Capa_1" data-name="Capa 1" viewBox="0 0 1000 1000" width="1000" height="1000" version="1.1" sodipodi:docname="novaklar2026.svg" inkscape:export-filename="cloud2026.svg" inkscape:export-xdpi="96" inkscape:export-ydpi="96">
  <defs id="defs21"/>
  <sodipodi:namedview id="namedview19" pagecolor="#ffffff" bordercolor="#000000" borderopacity="0.25" inkscape:showpageshadow="2" inkscape:pageopacity="0.0" inkscape:pagecheckerboard="0" inkscape:deskcolor="#d1d1d1" showgrid="false"/>
  <path d="m 925.71,854.35 c -26,0.52 -51.05,-0.46 -77.67,0.23 -42.45,1.1 -74.35,-14.57 -96.73,-48.99 C 729.6,772.22 709.39,737.88 687.67,704.5 658.81,660.1 631.28,614.69 599.6,572.24 587.23,555.67 572.92,543.36 555.06,534.3 v 288.44 c 0,17.29 -14.02,31.31 -31.31,31.31 h -96.22 c -17.29,0 -31.3,-14.02 -31.3,-31.31 V 444.11 c 0.04,-1.13 0.07,-2.26 0.07,-3.41 v -94.69 c 0,-48.6 -39.4,-88 -88.02,-88 h -9.81 c -48.61,0 -88.02,39.4 -88.02,88 v 476.73 c 0,17.29 -14.02,31.31 -31.31,31.31 H 82.92 c -17.29,0 -31.3,-14.02 -31.3,-31.31 V 177.9 c 0,-17.29 14.01,-31.31 31.3,-31.31 h 96.22 c 17.29,0 31.31,14.02 31.31,31.31 v 32.81 c 34.76,-39.69 85.81,-64.74 142.72,-64.74 h 12.89 c 104.76,0 189.68,84.92 189.68,189.68 v 51.88 c 27.82,-14.19 48.28,-36.27 63.91,-62.95 23.91,-40.85 46.44,-82.47 70.37,-123.31 7.78,-13.26 16.94,-26.17 27.59,-37.28 12.63,-13.18 30.18,-17.99 48.25,-18.29 31.88,-0.53 63.78,-0.36 95.66,-0.01 18.92,0.2 27.67,12.96 19.97,30.61 -6.95,15.93 -15.88,31.05 -24.31,46.34 -26.34,47.82 -52.59,95.71 -79.44,143.27 -12.33,21.84 -26.73,42.34 -46.28,58.81 -16.06,13.52 -33.93,23.72 -54.16,29.84 -1.86,0.56 -3.7,1.19 -5.53,1.86 -0.4,0.15 0.19,-0.09 -2.39,0.98 5.43,2.38 11.92,4.98 17.05,7.6 29.23,14.98 52.02,37.54 70.67,63.52 25.34,35.35 48.74,72.03 72.63,108.37 15.76,23.96 30.97,48.28 46.29,72.52 19.85,31.38 39.68,62.78 59.3,94.3 4.1,6.57 7.91,13.45 10.74,20.61 6.77,17.1 -1.91,29.68 -20.37,30.04 z" id="path16" style="opacity:1;fill:#f1efee;fill-opacity:1;stroke:none;stroke-width:0;stroke-dasharray:none;stroke-opacity:1"/>
</svg>