<?xml version="1.0" standalone="no"?>
<!DOCTYPE svg PUBLIC "-//W3C//DTD SVG 1.1//EN" "http://www.w3.org/Graphics/SVG/1.1/DTD/svg11.dtd">
<svg xmlns:inkscape="http://www.inkscape.org/namespaces/inkscape" xmlns:sodipodi="http://sodipodi.sourceforge.net/DTD/sodipodi-0.dtd" xmlns="http://www.w3.org/2000/svg" xmlns:svg="http://www.w3.org/2000/svg" version="1.1" id="svg9" width="933.3333129882812" height="933.3333129882812" viewBox="0 0 933.33331 933.33331" xml:space="preserve" sodipodi:docname="hanabi2026.svg" inkscape:version="1.2.2 (732a01da63, 2022-12-09)"><sodipodi:namedview id="namedview6" pagecolor="#ffffff" bordercolor="#000000" borderopacity="0.25" inkscape:showpageshadow="2" inkscape:pageopacity="0.0" inkscape:pagecheckerboard="0" inkscape:deskcolor="#d1d1d1" showgrid="false" inkscape:zoom="0.79549515" inkscape:cx="189.81888" inkscape:cy="414.83597" inkscape:window-width="1366" inkscape:window-height="705" inkscape:window-x="-8" inkscape:window-y="-8" inkscape:window-maximized="1" inkscape:current-layer="svg9"/><defs id="defs13"/><g id="g15"><path id="path460" style="fill:#000000;stroke-width:4.51654" d="m 209.64151,193.21174 c 2.04768,48.50117 -0.66359,97.49439 7.58439,145.48327 7.26498,32.72011 36.28016,56.2431 65.29825,69.70883 20.21705,7.95409 42.17272,5.78908 63.40545,6.11832 v -49.68282 c -28.32984,2.13661 -61.14503,-5.9055 -75.03595,-33.13303 -10.2892,-28.3313 -4.93062,-59.23385 -6.26135,-88.81174 34.71073,0.85656 75.87961,-5.6961 101.36417,23.5114 16.84361,29.56452 11.93853,67.61138 15.16779,100.96609 0.49091,81.7173 -0.93305,163.43898 -1.36024,245.1585 -15.02897,18.27044 -34.54608,34.35956 -59.34522,35.51504 -18.52988,2.16939 -37.21725,1.06043 -55.82646,1.33575 1.33916,-29.57573 -4.01433,-60.47702 6.26136,-88.81174 13.88411,-27.21643 46.71761,-35.29036 75.03594,-33.13533 v -49.68053 c -30.48742,-0.5112 -63.75959,-1.15149 -88.17585,20.32344 -23.57174,16.60713 -42.04027,41.69577 -43.28129,71.36821 -4.22574,43.06133 -3.39971,86.40788 -4.83095,129.61646 47.55695,-0.97217 95.51366,2.83008 142.7002,-4.22063 41.00848,-8.61245 70.73312,-46.45712 79.91369,-85.75859 4.28691,-45.11976 3.31749,-90.56995 4.95195,-135.84656 h 62.28609 c 0.75651,48.16119 -2.72919,96.90831 6.16585,144.45948 13.68482,47.77004 61.23783,84.66802 111.67824,81.09679 36.25544,0.4805 72.51626,0.18867 108.7743,0.26951 -2.04588,-48.50053 0.66683,-97.49322 -7.58306,-145.48125 -7.26622,-32.71992 -36.2813,-56.24295 -65.29961,-69.70891 -20.21705,-7.95409 -42.17273,-5.78908 -63.40546,-6.11832 v 49.68052 c 28.33498,-2.13807 61.1566,5.91175 75.04275,33.14833 10.32139,28.70534 4.90496,59.98218 6.25455,89.93105 -30.50653,-2.98555 -63.49484,1.47771 -91.06484,-14.22518 -23.48919,-15.17968 -25.99185,-44.43 -25.58538,-69.73054 -0.68447,-87.68522 -2.07914,-175.46595 1.03991,-263.10879 10.58607,-64.87292 68.52051,-58.83859 115.61034,-61.68882 -1.35219,29.94796 4.06731,61.22541 -6.25433,89.93106 -13.87968,27.22535 -46.72001,35.30435 -75.04297,33.14833 v 49.68282 c 33.02574,1.00274 69.12584,-0.58737 94.1686,-25.30818 22.50744,-16.44202 36.71664,-42.31818 37.73762,-70.26982 3.61683,-41.80271 3.05207,-83.81957 4.38186,-125.7324 -45.59899,0.75285 -91.39605,-1.96876 -136.82811,2.36332 -50.6924,10.74929 -89.40261,60.12008 -88.07215,111.96894 -2.54178,37.11365 -1.49673,74.32595 -1.71818,111.49352 H 436.2622 c -0.95987,-49.57085 3.44629,-99.99726 -7.61806,-148.67487 -14.48766,-46.1953 -61.64124,-80.17452 -110.3756,-76.8781 -36.2053,-0.48583 -72.4188,-0.19133 -108.62703,-0.27283 z" sodipodi:nodetypes="ccsscccsccccccccsccsscccssccsssccccsssccsscccscc"/></g></svg>