<?xml version="1.0" standalone="no"?>
<!DOCTYPE svg PUBLIC "-//W3C//DTD SVG 1.1//EN" "http://www.w3.org/Graphics/SVG/1.1/DTD/svg11.dtd">
<svg xmlns:inkscape="http://www.inkscape.org/namespaces/inkscape" xmlns:sodipodi="http://sodipodi.sourceforge.net/DTD/sodipodi-0.dtd" xmlns="http://www.w3.org/2000/svg" xmlns:svg="http://www.w3.org/2000/svg" width="139.70205688476562" height="202.94796752929688" viewBox="0 0 139.70206 202.94797" version="1.1" id="svg5" xml:space="preserve" inkscape:version="1.2.2 (732a01da63, 2022-12-09)" sodipodi:docname="Novaft.svg"><sodipodi:namedview id="namedview7" pagecolor="#ffffff" bordercolor="#000000" borderopacity="0.25" inkscape:showpageshadow="2" inkscape:pageopacity="0.0" inkscape:pagecheckerboard="0" inkscape:deskcolor="#d1d1d1" inkscape:document-units="mm" showgrid="false" inkscape:zoom="0.46769781" inkscape:cx="-190.29381" inkscape:cy="267.26659" inkscape:window-width="1366" inkscape:window-height="705" inkscape:window-x="-8" inkscape:window-y="-8" inkscape:window-maximized="1" inkscape:current-layer="layer1"/><defs id="defs2"/><g inkscape:label="Capa 1" inkscape:groupmode="layer" id="layer1" transform="translate(-38.201433,-57.941391)"><g id="g305"><path style="fill:#000000;stroke-width:0.264583" d="m 51.562883,260.13361 c -6.9244,-2.36182 -11.50662,-7.46254 -12.9406,-14.40487 -0.37825,-1.83121 -0.42085,-8.78524 -0.42085,-68.68522 0,-42.03517 0.0978,-67.90771 0.26489,-70.0596 0.96624,-12.445356 4.22079,-22.147193 10.02017,-29.870193 1.73821,-2.314763 5.66901,-6.290826 8.10348,-8.196778 6.45933,-5.057042 14.37212,-8.346604 23.8125,-9.899505 3.23092,-0.531473 8.79428,-1.094459 10.62886,-1.075592 0.98553,0.01013 0.95225,0.04062 -1.23615,1.132237 -17.23093,8.595106 -26.82357,23.750349 -28.83523,45.556301 -0.17327,1.87812 -0.26858,26.77066 -0.26872,70.18074 l -2.2e-4,67.27031 h 3.43373 3.43374 l 0.0885,-68.46094 c 0.0666,-51.50415 0.16731,-69.01797 0.40675,-70.7099 1.27244,-8.991315 2.74036,-14.322179 5.48725,-19.927327 7.64504,-15.600013 21.85406,-23.606212 44.103497,-24.850505 6.42251,-0.359178 13.88305,-0.02701 19.24654,0.856929 23.41126,3.858316 36.63034,17.301425 40.19696,40.878197 0.77187,5.102316 0.81467,9.094416 0.81548,76.053696 7.9e-4,67.56957 -0.008,68.74383 -0.52205,70.75431 -1.64024,6.41328 -5.94405,11.05821 -12.44456,13.43093 -1.68764,0.616 -1.91878,0.62918 -12.3628,0.70513 l -10.643,0.0774 -2.44835,-0.82027 c -3.4136,-1.14366 -5.03714,-2.13971 -7.50974,-4.60728 -2.36901,-2.36419 -3.74852,-4.58146 -4.84049,-7.78003 l -0.6925,-2.02847 -0.13927,-64.82291 -0.13928,-64.82292 -0.59386,-2.22271 c -2.58581,-8.81538 -10.11579,-11.90306 -17.36001,-11.92936 -4.98974,0.31148 -7.58887,0.77606 -10.982327,3.46372 0.673794,-5.83488 3.155467,-12.372943 6.464917,-16.196021 1.16159,-1.305385 2.6881,-2.439799 4.49358,-3.339367 8.13241,-3.251482 18.58967,-4.097262 25.71128,-0.85811 8.7186,4.028004 13.12908,11.668371 14.37613,24.904078 0.19,2.01657 0.30114,24.20572 0.33838,67.5611 l 0.0555,64.55834 3.50573,0.0738 3.50573,0.0738 -0.001,-63.30924 c -7.9e-4,-41.07603 -0.0973,-64.61009 -0.27501,-67.01341 -0.89466,-12.097293 -3.81616,-19.824653 -9.76665,-25.832759 -3.92577,-3.963781 -8.60443,-6.665978 -14.02004,-8.097369 -2.16132,-0.571256 -3.27672,-0.686535 -7.69271,-0.795057 -6.0203,-0.14795 -9.7864,0.27899 -13.62055,1.544074 -5.41882,1.787948 -11.048207,5.3028 -13.599367,8.491112 -2.72159,3.401285 -4.77541,8.304127 -5.89469,14.071629 -0.55049,2.83659 -0.57802,3.8255 -0.74491,26.75795 -0.0953,13.09687 -0.19794,44.64844 -0.22805,70.11458 -0.0464,39.21492 -0.11334,46.58557 -0.43752,48.15417 -0.75931,3.6741 -3.37149,7.94538 -6.42007,10.49772 -1.43885,1.20465 -5.95714,3.46552 -7.7837,3.89482 -0.79395,0.18661 -4.89609,0.2898 -11.37708,0.2862 l -10.13544,-0.006 -2.11667,-0.72197 z" id="path302" sodipodi:nodetypes="csscscsscssccccscsssscsscssscccccccccsccccccsssscsscssscccc"/></g></g></svg>
