<?xml version="1.0" encoding="UTF-8"?>
<svg id="Capa_1" data-name="Capa 1" xmlns="http://www.w3.org/2000/svg" viewBox="0 0 1000 1000">
  <path d="M925.71,854.35c-26,.52-51.05-.46-77.67,.23-42.45,1.1-74.35-14.57-96.73-48.99-21.71-33.37-41.92-67.71-63.64-101.09-28.86-44.4-56.39-89.81-88.07-132.26-12.37-16.57-26.68-28.88-44.54-37.94v288.44c0,17.29-14.02,31.31-31.31,31.31h-96.22c-17.29,0-31.3-14.02-31.3-31.31V444.11c.04-1.13,.07-2.26,.07-3.41v-94.69c0-48.6-39.4-88-88.02-88h-9.81c-48.61,0-88.02,39.4-88.02,88v476.73c0,17.29-14.02,31.31-31.31,31.31H82.92c-17.29,0-31.3-14.02-31.3-31.31V177.9c0-17.29,14.01-31.31,31.3-31.31h96.22c17.29,0,31.31,14.02,31.31,31.31v32.81c34.76-39.69,85.81-64.74,142.72-64.74h12.89c104.76,0,189.68,84.92,189.68,189.68v51.88c27.82-14.19,48.28-36.27,63.91-62.95,23.91-40.85,46.44-82.47,70.37-123.31,7.78-13.26,16.94-26.17,27.59-37.28,12.63-13.18,30.18-17.99,48.25-18.29,31.88-.53,63.78-.36,95.66-.01,18.92,.2,27.67,12.96,19.97,30.61-6.95,15.93-15.88,31.05-24.31,46.34-26.34,47.82-52.59,95.71-79.44,143.27-12.33,21.84-26.73,42.34-46.28,58.81-16.06,13.52-33.93,23.72-54.16,29.84-1.86,.56-3.7,1.19-5.53,1.86-.4,.15,.19-.09-2.39,.98,5.43,2.38,11.92,4.98,17.05,7.6,29.23,14.98,52.02,37.54,70.67,63.52,25.34,35.35,48.74,72.03,72.63,108.37,15.76,23.96,30.97,48.28,46.29,72.52,19.85,31.38,39.68,62.78,59.3,94.3,4.1,6.57,7.91,13.45,10.74,20.61,6.77,17.1-1.91,29.68-20.37,30.04Z"/>
</svg>