<?xml version="1.0" encoding="UTF-8" standalone="no"?>
<!-- Created with Inkscape (http://www.inkscape.org/) -->

<svg
   width="176.11372mm"
   height="117.57282mm"
   viewBox="0 0 176.11372 117.57282"
   version="1.1"
   id="svg1009"
   xml:space="preserve"
   inkscape:version="1.2.2 (732a01da63, 2022-12-09)"
   sodipodi:docname="novagroup.svg"
   xmlns:inkscape="http://www.inkscape.org/namespaces/inkscape"
   xmlns:sodipodi="http://sodipodi.sourceforge.net/DTD/sodipodi-0.dtd"
   xmlns="http://www.w3.org/2000/svg"
   xmlns:svg="http://www.w3.org/2000/svg"><sodipodi:namedview
     id="namedview1011"
     pagecolor="#ffffff"
     bordercolor="#000000"
     borderopacity="0.25"
     inkscape:showpageshadow="2"
     inkscape:pageopacity="0.0"
     inkscape:pagecheckerboard="0"
     inkscape:deskcolor="#d1d1d1"
     inkscape:document-units="mm"
     showgrid="false"
     inkscape:zoom="0.46769781"
     inkscape:cx="705.5838"
     inkscape:cy="107.9757"
     inkscape:window-width="1350"
     inkscape:window-height="728"
     inkscape:window-x="-10"
     inkscape:window-y="12"
     inkscape:window-maximized="0"
     inkscape:current-layer="layer1" /><defs
     id="defs1006" /><g
     inkscape:label="Capa 1"
     inkscape:groupmode="layer"
     id="layer1"
     transform="translate(-17.03241,-120.21522)"><path
       id="path2957"
       style="fill:#000000;stroke-width:0.20415"
       d="m 72.765337,120.21522 -0.682682,0.32396 -0.682036,0.3233 -0.285269,0.44201 -0.284621,0.44201 -7.630856,21.80001 -7.631504,21.80001 -0.415117,0.0847 -0.41513,0.084 -3.878379,0.7417 -3.879039,0.74171 -4.083,1.02239 -4.082987,1.02173 -3.637705,1.21257 -3.637058,1.21257 -2.520881,1.09059 -2.520882,1.09059 -2.109698,1.25848 -2.109699,1.25781 -1.449973,1.19814 -1.449312,1.19815 -0.849258,1.27093 -0.848598,1.27159 -0.324621,1.11617 -0.324622,1.11683 0.13707,0.94958 0.137056,0.95025 0.464306,1.02108 0.464965,1.02042 0.832862,1.04731 0.832861,1.04665 1.800813,1.3562 1.800826,1.35683 3.266522,1.6172 3.266521,1.61719 2.761569,1.02109 2.760896,1.02107 3.7715,1.04861 3.771488,1.04863 0.268212,0.0839 0.268226,0.0832 -0.09378,0.15476 -0.09315,0.15477 -6.043827,17.27107 -6.043827,17.27174 v 0.55087 0.55087 l 0.316094,0.61119 0.316094,0.61121 0.653177,0.39873 0.653837,0.39807 h 10.616044 10.615383 l 0.650551,-0.39611 0.65055,-0.39675 0.207235,-0.38824 0.207883,-0.38757 5.632643,-16.10047 5.633303,-16.10049 0.04201,-0.0327 0.04137,-0.0327 1.327332,0.16264 1.326672,0.16329 3.470483,0.32986 3.47113,0.32921 5.613616,0.40135 5.61428,0.402 7.0754,0.13313 7.075394,0.13313 5.32573,15.21515 5.32573,15.21581 0.53579,0.55873 0.53578,0.5594 0.74106,0.20985 0.74104,0.20986 11.84108,-0.0538 11.84042,-0.0532 0.66169,-0.35021 0.66105,-0.35019 0.37511,-0.76138 0.37512,-0.76138 5.7802,-16.5569 5.78085,-16.55627 2.06314,-0.35806 2.06378,-0.35741 2.55237,-0.49972 2.55171,-0.50037 2.65401,-0.61579 2.65401,-0.6158 2.55171,-0.70826 2.5517,-0.70826 2.24545,-0.73449 2.24611,-0.73516 2.0415,-0.80597 2.0415,-0.80597 2.24545,-1.09452 2.24544,-1.09519 1.83754,-1.21322 1.83754,-1.21323 1.2493,-1.30438 1.24995,-1.30437 0.58498,-1.11682 0.5843,-1.11683 v -1.73524 -1.73524 l -0.57906,-1.10568 -0.57907,-1.10633 -1.03813,-1.09714 -1.03813,-1.09781 -1.33979,-0.98566 -1.34044,-0.98632 -1.63295,-0.94042 -1.63293,-0.93975 -2.34776,-1.05387 -2.34774,-1.05386 -4.1853,-1.37521 -4.1853,-1.37521 -2.80747,-0.68858 -2.80811,-0.6886 0.11015,-0.29051 0.11015,-0.29052 7.54626,-21.55933 7.54625,-21.55999 v -0.93582 -0.93648 l -0.42626,-0.54169 -0.42627,-0.54234 -0.58432,-0.30168 -0.58432,-0.30231 h -10.32618 -10.32618 l -0.65711,0.27805 -0.6571,0.27806 -0.33381,0.38561 -0.33446,0.38496 -11.40431,32.59902 -11.40431,32.59903 -1.63293,0.12852 -1.63359,0.12855 -4.04955,0.0387 -4.0502,0.0387 -11.40628,-32.60821 -11.406944,-32.60887 -0.32593,-0.49708 -0.32593,-0.49776 -0.68268,-0.3233 -0.68204,-0.32396 h -12.08568 z m 11.990599,34.73233 5.58739,15.96145 5.58805,15.96079 0.0957,0.25511 0.0951,0.25575 -3.33866,-0.0315 -3.33932,-0.0315 -4.28761,-0.15937 -4.28694,-0.15935 -3.572784,-0.23477 -3.57278,-0.23544 -0.05508,-0.0544 -0.05508,-0.0551 5.479838,-15.6447 5.480496,-15.64536 0.0905,-0.0911 z m -31.547127,16.44214 0.09251,0.0932 0.09315,0.0932 -2.107732,6.01366 -2.107731,6.01366 -0.5889,0.0341 -0.588253,0.0335 -0.918776,-0.20068 -0.918763,-0.20067 -2.25201,-0.49644 -2.252009,-0.4971 -1.62703,-0.52594 -1.627029,-0.52661 -1.464402,-0.69842 -1.464389,-0.69842 -0.628254,-0.62825 -0.627606,-0.62761 v -0.58169 -0.58104 l 0.537758,-0.6394 0.538405,-0.6394 1.350289,-0.67415 1.350289,-0.67482 1.632931,-0.53513 1.633591,-0.53579 2.551707,-0.60399 2.551707,-0.60399 3.419987,-0.55612 z m 110.341811,1.06436 0.71415,0.12589 0.71483,0.12525 2.55171,0.61908 2.5517,0.61907 1.83754,0.7076 1.83754,0.70761 0.9955,0.63875 0.99551,0.63875 0.24854,0.59153 0.2492,0.59218 -0.095,0.49512 -0.0944,0.49579 -0.61775,0.5194 -0.61712,0.51938 -1.0355,0.52463 -1.0355,0.52465 -1.2729,0.47938 -1.27291,0.47874 -2.40873,0.60792 -2.40941,0.60793 -2.82058,0.5207 -2.82058,0.5207 h -0.0886 -0.0886 v -0.13443 -0.13444 l 1.99035,-5.6956 z" /></g></svg>
