<?xml version="1.0" encoding="UTF-8" standalone="no"?>
<!-- Created with Inkscape (http://www.inkscape.org/) -->

<svg
   version="1.1"
   id="svg1"
   width="1080"
   height="1080"
   viewBox="0 0 1080 1080"
   sodipodi:docname="textonk.svg"
   inkscape:version="1.3.2 (091e20e, 2023-11-25, custom)"
   xmlns:inkscape="http://www.inkscape.org/namespaces/inkscape"
   xmlns:sodipodi="http://sodipodi.sourceforge.net/DTD/sodipodi-0.dtd"
   xmlns="http://www.w3.org/2000/svg"
   xmlns:svg="http://www.w3.org/2000/svg">
  <defs
     id="defs1" />
  <sodipodi:namedview
     id="namedview1"
     pagecolor="#ffffff"
     bordercolor="#cccccc"
     borderopacity="1"
     inkscape:showpageshadow="0"
     inkscape:pageopacity="1"
     inkscape:pagecheckerboard="0"
     inkscape:deskcolor="#d1d1d1"
     inkscape:zoom="0.94259259"
     inkscape:cx="514.00786"
     inkscape:cy="534.16503"
     inkscape:window-width="1366"
     inkscape:window-height="705"
     inkscape:window-x="-8"
     inkscape:window-y="-8"
     inkscape:window-maximized="1"
     inkscape:current-layer="g1" />
  <g
     inkscape:groupmode="layer"
     inkscape:label="Image"
     id="g1">
    <path
       style="fill:#000000"
       d="m 304,585.58819 c -21.66171,-4.06589 -35.07697,-18.74896 -37.93178,-41.51653 -2.88836,-23.0351 7.579,-44.39165 26.22979,-53.51664 23.77594,-11.63248 54.7038,-3.56668 65.96358,17.20291 4.02736,7.42881 5.99684,16.52741 6.00504,27.74207 0.008,11.57405 -1.19912,17.4773 -5.35762,26.19065 -6.10404,12.78988 -19.32084,22.11178 -34.40901,24.26894 -8.68249,1.24134 -12.25243,1.17666 -20.5,-0.3714 z m 21.2634,-16.75055 c 4.55666,-2.29075 8.99352,-8.17534 11.43021,-15.15984 2.68198,-7.68757 2.569,-29.08435 -0.19361,-36.66805 -5.52033,-15.15401 -20.35578,-20.96148 -33.27068,-13.02412 -9.37597,5.76237 -14.51341,25.50278 -11.22404,43.12788 1.57416,8.43464 6.48279,17.51933 11.12644,20.59236 6.86407,4.54242 14.56409,4.93619 22.13168,1.13177 z m 194.89784,17.08644 c -17.04544,-2.21125 -28.46573,-9.29913 -32.65419,-20.26646 -2.15435,-5.64108 -1.72405,-16.47834 0.86664,-21.82654 2.85858,-5.90122 9.49826,-11.68607 18.12631,-15.79262 9.61107,-4.57443 17.29775,-6.52584 32.25821,-8.18937 L 550,518.59907 l -0.004,-3.04954 c -0.008,-6.86244 -6.21546,-12.62284 -15.72992,-14.59804 -8.11373,-1.6844 -25.30102,0.90349 -37.76464,5.68623 -1.53388,0.5886 -3.5017,-4.59844 -3.5017,-9.23024 0,-2.27942 0.69305,-3.78266 2.25,-4.88028 7.31701,-5.15837 31.86521,-8.67085 46.74941,-6.68916 12.82777,1.70791 19.39607,4.427 25.5433,10.57424 8.31279,8.31278 8.45729,9.16121 8.45729,49.65631 v 34.71231 l -7.75,2.078 c -13.28473,3.56203 -34.05403,4.88587 -48.08876,3.06518 z m 26.07427,-16.55952 c 3.4736,-1.77893 3.6519,-2.72327 3.9868,-21.11538 l 0.27769,-15.25082 -2.79216,8.2e-4 c -9.24637,0.003 -27.46212,5.98146 -31.58055,10.36533 -7.27271,7.74144 -5.692,20.70337 3.07849,25.24379 6.56229,3.39726 21.07974,3.80344 27.02973,0.75626 z m 243.51915,16.65531 c -17.63847,-2.23237 -29.91855,-9.87408 -33.61656,-20.91909 -1.48264,-4.42829 -1.4529,-13.31802 0.0615,-18.37253 1.63209,-5.44742 9.4553,-13.73265 16.5247,-17.5006 8.26822,-4.40691 21.00818,-7.84551 34.58537,-9.33481 L 819,518.61051 v -3.15737 c 0,-3.9048 -3.48923,-9.25072 -7.60785,-11.65612 -5.24134,-3.06111 -13.6092,-4.089 -23.05485,-2.83202 -6.95906,0.92608 -16.90403,3.39656 -22.8356,5.67272 -1.53388,0.5886 -3.5017,-4.59844 -3.5017,-9.23024 0,-4.05388 2.16655,-5.74297 10.79987,-8.41986 10.37248,-3.21613 26.59424,-4.59511 37.64144,-3.19982 13.15945,1.66208 19.87085,4.39393 26.1014,10.62448 8.31217,8.31216 8.45729,9.16385 8.45729,49.63408 v 34.69009 l -5.75,1.57329 c -13.49589,3.69271 -36.19126,5.39393 -49.49534,3.71013 z m 24.91799,-16.69967 c 1.74496,-0.81107 3.40358,-2.07647 3.68583,-2.81199 0.28224,-0.73553 0.60878,-8.46327 0.72563,-17.17277 0.24896,-18.55564 1.08366,-17.55621 -12.3971,-14.84375 -9.30119,1.87149 -18.5633,5.68328 -21.55972,8.87282 -7.25691,7.72463 -5.69232,20.70634 3.03982,25.22191 6.70963,3.46968 19.83754,3.83311 26.50554,0.73378 z M 154,537.57143 c 0,-41.78355 0.18703,-47.61561 1.57143,-49 1.24524,-1.24524 3.94372,-1.57143 13,-1.57143 H 180 v 2.60699 c 0,2.09613 0.34292,2.46298 1.75,1.87211 23.93121,-10.04941 46.88547,-7.6677 55.93117,5.80336 5.26717,7.84399 5.79641,12.44979 5.80821,50.54677 0.0102,32.83415 -0.0739,34.39111 -1.93051,35.75 -1.40656,1.02951 -5.05548,1.42077 -13.25,1.42077 H 217 v -36.53212 c 0,-40.43002 -0.18363,-41.78454 -6.15725,-45.41732 -1.80268,-1.09627 -5.0967,-2.26601 -7.32004,-2.59943 -4.42051,-0.66289 -15.74511,1.57828 -20.56229,4.06934 L 180,506.05136 v 37.90289 c 0,33.12384 -0.19814,38.10103 -1.57143,39.47432 -1.24524,1.24524 -3.94372,1.57143 -13,1.57143 H 154 Z M 408.70679,583.75 C 402.05845,567.36484 373,491.548 373,490.58689 c 0,-3.03811 2.7363,-3.65124 15.03337,-3.36855 l 12.25216,0.28166 13.10724,36.23416 c 7.20897,19.92879 13.33812,36.24129 13.62031,36.25 0.2822,0.009 6.3572,-15.61802 13.5,-34.72606 7.14281,-19.10805 13.77442,-35.53305 14.73692,-36.5 1.42388,-1.43047 3.51453,-1.7581 11.21862,-1.7581 8.60004,0 9.40866,0.16053 8.81503,1.75 -0.35947,0.9625 -8.89731,22.225 -18.97299,47.25 -11.4675,28.48188 -19.10726,46.15454 -20.42582,47.25 -1.75415,1.45734 -4.16038,1.75 -14.38864,1.75 -8.88861,0 -12.42236,-0.34538 -12.78941,-1.25 z M 602,521.53518 c 0,-61.72234 0.0531,-63.49323 1.93426,-64.5 C 604.9981,456.46583 610.84195,456 616.92059,456 h 11.05208 l 0.26367,32.71917 0.26366,32.71917 17.9901,-16.7189 c 12.62386,-11.73185 18.88791,-16.88351 21,-17.27076 1.65544,-0.30353 7.45945,-0.41615 12.89779,-0.25027 l 9.88788,0.30159 -18.6661,17.45529 c -11.05523,10.33811 -18.46117,17.98931 -18.1635,18.76503 0.27643,0.72036 8.83913,14.54691 19.02821,30.72567 C 682.66347,570.62474 691,584.11798 691,584.43095 c 0,1.04301 -26.8688,0.58595 -29.24673,-0.49751 -1.44171,-0.65688 -7.48649,-9.20324 -15.73727,-22.25 -7.36804,-11.65089 -13.56661,-21.40172 -13.77461,-21.6685 -0.208,-0.26678 -1.23739,0.63322 -2.28755,2 -1.72024,2.23891 -1.91157,4.3352 -1.9316,21.16363 -0.0186,15.62671 -0.27899,18.93533 -1.59367,20.25 -1.24524,1.24524 -3.94372,1.57143 -13,1.57143 H 602 Z m 103,0.65059 c 0,-59.64306 0.094,-62.96089 1.82874,-64.53078 C 708.30037,456.32318 710.83605,456 719.81377,456 h 11.15629 l 0.26497,62.18577 c 0.17512,41.09872 -0.0835,62.88575 -0.76273,64.25 -0.94188,1.89183 -2.04846,2.08768 -13.25,2.34501 L 705,585.06156 Z m 166,15.38566 c 0,-41.78355 0.18703,-47.61561 1.57143,-49 1.24524,-1.24524 3.94372,-1.57143 13,-1.57143 H 897 v 3.5 c 0,1.925 0.2289,3.5 0.50866,3.5 0.27976,0 2.38855,-1.36179 4.6862,-3.02619 8.23162,-5.96296 20.11513,-7.45047 27.79473,-3.47919 4.99087,2.58088 5.57133,5.18 2.6381,11.81256 -1.3847,3.13105 -2.71082,5.69282 -2.94693,5.69282 -0.23612,0 -2.34246,-0.675 -4.68076,-1.5 -6.32402,-2.23125 -12.65946,-1.8717 -18.99675,1.07808 -9.79503,4.55925 -9.00325,0.87644 -9.00325,41.87691 0,26.77945 -0.31093,36.45594 -1.2,37.34501 -0.79774,0.79774 -5.15556,1.2 -13,1.2 H 871 Z"
       id="path1" />
  </g>
</svg>
