<?xml version="1.0" encoding="UTF-8"?>
<svg id="Capa_1" data-name="Capa 1" xmlns="http://www.w3.org/2000/svg" viewBox="0 0 1000 1000">
  <defs>
    <style>
      .cls-1 {
        fill: #fcfefc;
      }

      .cls-2 {
        fill: #2fee67;
      }
    </style>
  </defs>
  <path class="cls-2" d="M500.37,189.91c59.67,0,119.33-.04,179,0,76.36,.06,141.55,60.88,147.34,137.2,.67,8.81,.95,17.59,.95,26.41,0,104.28,0,208.55-.01,312.83,0,44.36-15.85,82.2-48.02,112.59-27.36,25.85-60.18,40.12-98.13,40.19-121.09,.24-242.19,.22-363.28,.04-68.33-.11-131.12-53.69-143.07-121.44-1.93-10.94-2.81-21.94-2.81-33.05,.03-108.05-.02-216.11,.04-324.16,.04-75.91,55.66-139.62,130.9-149.91,5.95-.81,12.06-.67,18.1-.68,59.67-.05,119.33-.03,179-.03Zm-195.55,510.36c3.44-.7,5.4-1.01,7.31-1.51,29.67-7.71,59.36-15.38,89-23.22,4.57-1.21,8.45-1.01,12.86,1.17,55.07,27.25,110.91,27.63,166.84,3.2,81.02-35.4,127.88-124.09,112.15-211.05-22.48-124.26-153.35-194.51-269.32-144.56-102.03,43.95-146.72,164.28-97.42,263.75,4.54,9.16,5.02,16.71,2.28,26.1-8.22,28.17-15.63,56.56-23.71,86.13Z"/>
  <path class="cls-1" d="M304.82,700.27c8.07-29.57,15.49-57.97,23.71-86.13,2.74-9.39,2.26-16.93-2.28-26.1-49.3-99.47-4.61-219.8,97.42-263.75,115.96-49.95,246.84,20.3,269.32,144.56,15.73,86.96-31.13,175.65-112.15,211.05-55.93,24.44-111.77,24.05-166.84-3.2-4.41-2.18-8.29-2.38-12.86-1.17-29.64,7.84-59.32,15.52-89,23.22-1.91,.5-3.88,.81-7.31,1.51Zm46.73-45.76c19.15-5.04,36.92-9.56,54.58-14.48,4.49-1.25,7.9-.79,11.99,1.62,40.27,23.69,83.28,29.32,127.91,16.24,80.62-23.63,128.38-101.42,114.21-184.27-17.88-104.51-135.63-163.84-230.46-116.13-87.18,43.86-116.8,148.5-65.45,231.68,2.64,4.28,3.03,7.93,1.65,12.69-4.95,17.07-9.43,34.27-14.43,52.66Z"/>
  <path class="cls-2" d="M351.55,654.51c5-18.39,9.48-35.59,14.43-52.66,1.38-4.76,.99-8.41-1.65-12.69-51.35-83.18-21.73-187.82,65.45-231.68,94.83-47.71,212.58,11.62,230.46,116.13,14.18,82.85-33.58,160.64-114.21,184.27-44.64,13.08-87.64,7.45-127.91-16.24-4.09-2.4-7.5-2.87-11.99-1.62-17.66,4.92-35.43,9.44-54.58,14.48Zm50.47-193.85c.22,12.34,4.78,25.88,12.57,38.14,28.34,44.61,64.68,79.3,117.06,94.27,19.07,5.45,36.55,4.05,53.14-7.4,11.96-8.25,15.05-20.07,15.02-33.5,0-2.55-1.18-4.31-3.41-5.39-13.34-6.45-26.63-13.01-40.07-19.23-4.63-2.14-8.47-.79-11.63,3.74-4.02,5.76-8.96,10.87-13.22,16.47-3.15,4.14-6.63,4.5-11.22,2.66-27.55-11.05-48.96-29.24-64.64-54.44-3.43-5.51-4.02-9.77,1.07-14.58,3.43-3.24,6.14-7.3,8.91-11.18,3.34-4.67,3.51-9.33,.92-14.81-4.49-9.53-8.11-19.47-12.05-29.26-6.18-15.35-23.64-18.85-35.54-7.09-10.9,10.77-16.46,23.86-16.89,41.59Z"/>
  <path class="cls-1" d="M402.01,460.66c.44-17.73,6-30.82,16.89-41.59,11.9-11.77,29.36-8.26,35.54,7.09,3.94,9.79,7.56,19.73,12.05,29.26,2.58,5.48,2.41,10.15-.92,14.81-2.77,3.88-5.48,7.94-8.91,11.18-5.09,4.81-4.5,9.06-1.07,14.58,15.69,25.19,37.1,43.39,64.64,54.44,4.59,1.84,8.07,1.48,11.22-2.66,4.26-5.6,9.2-10.72,13.22-16.47,3.17-4.53,7-5.89,11.63-3.74,13.45,6.22,26.73,12.79,40.07,19.23,2.23,1.08,3.41,2.84,3.41,5.39,.03,13.43-3.07,25.24-15.02,33.5-16.59,11.45-34.07,12.85-53.14,7.4-52.38-14.96-88.72-49.66-117.06-94.27-7.79-12.26-12.36-25.81-12.57-38.14Z"/>
</svg>
